{
  "accessors": [
    {
      "bufferView": 2,
      "componentType": 5126,
      "count": 65532,
      "max": [
        35.958972930908203,
        45.379215240478516,
        22.486091613769531
      ],
      "min": [
        -33.661571502685547,
        -17.616315841674805,
        -6.0294513702392578
      ],
      "type": "VEC3"
    },
    {
      "bufferView": 2,
      "byteOffset": 786384,
      "componentType": 5126,
      "count": 65532,
      "max": [
        0.99934983253479004,
        0.99995487928390503,
        0.99999099969863892
      ],
      "min": [
        -0.99999028444290161,
        -0.99999719858169556,
        -0.98704701662063599
      ],
      "type": "VEC3"
    },
    {
      "bufferView": 1,
      "componentType": 5126,
      "count": 65532,
      "max": [
        0.99957269430160522,
        0.93817126750946045
      ],
      "min": [
        0.00018310546875,
        0.00042714609298855066
      ],
      "type": "VEC2"
    },
    {
      "bufferView": 0,
      "componentType": 5125,
      "count": 194181,
      "max": [
        65531
      ],
      "min": [
        0
      ],
      "type": "SCALAR"
    },
    {
      "bufferView": 2,
      "byteOffset": 1572768,
      "componentType": 5126,
      "count": 65532,
      "max": [
        35.958972930908203,
        45.379215240478516,
        21.084779739379883
      ],
      "min": [
        -28.258661270141602,
        -51.283885955810547,
        -6.0294513702392578
      ],
      "type": "VEC3"
    },
    {
      "bufferView": 2,
      "byteOffset": 2359152,
      "componentType": 5126,
      "count": 65532,
      "max": [
        0.99991762638092041,
        0.99991750717163086,
        0.99999922513961792
      ],
      "min": [
        -0.99998855590820312,
        -0.99999719858169556,
        -0.99637144804000854
      ],
      "type": "VEC3"
    },
    {
      "bufferView": 1,
      "byteOffset": 524256,
      "componentType": 5126,
      "count": 65532,
      "max": [
        0.99957269430160522,
        0.94061267375946045
      ],
      "min": [
        0.00018310546875,
        0.00042714609298855066
      ],
      "type": "VEC2"
    },
    {
      "bufferView": 0,
      "byteOffset": 776724,
      "componentType": 5125,
      "count": 186597,
      "max": [
        65531
      ],
      "min": [
        0
      ],
      "type": "SCALAR"
    },
    {
      "bufferView": 2,
      "byteOffset": 3145536,
      "componentType": 5126,
      "count": 65534,
      "max": [
        35.958972930908203,
        45.379215240478516,
        21.084779739379883
      ],
      "min": [
        -44.221359252929688,
        -51.283992767333984,
        -6.0294513702392578
      ],
      "type": "VEC3"
    },
    {
      "bufferView": 2,
      "byteOffset": 3931944,
      "componentType": 5126,
      "count": 65534,
      "max": [
        0.99995434284210205,
        0.9995538592338562,
        0.9999958872795105
      ],
      "min": [
        -0.99981153011322021,
        -0.99983060359954834,
        -0.99735033512115479
      ],
      "type": "VEC3"
    },
    {
      "bufferView": 1,
      "byteOffset": 1048512,
      "componentType": 5126,
      "count": 65534,
      "max": [
        0.99957269430160522,
        0.94244372844696045
      ],
      "min": [
        0.00018310546875,
        0.00042714609298855066
      ],
      "type": "VEC2"
    },
    {
      "bufferView": 0,
      "byteOffset": 1523112,
      "componentType": 5125,
      "count": 188913,
      "max": [
        65533
      ],
      "min": [
        0
      ],
      "type": "SCALAR"
    },
    {
      "bufferView": 2,
      "byteOffset": 4718352,
      "componentType": 5126,
      "count": 65532,
      "max": [
        35.958972930908203,
        45.379215240478516,
        23.842105865478516
      ],
      "min": [
        -44.221359252929688,
        -51.283992767333984,
        -6.0294513702392578
      ],
      "type": "VEC3"
    },
    {
      "bufferView": 2,
      "byteOffset": 5504736,
      "componentType": 5126,
      "count": 65532,
      "max": [
        0.9999992847442627,
        0.99994140863418579,
        0.99998629093170166
      ],
      "min": [
        -0.99968910217285156,
        -0.99972802400588989,
        -0.99616765975952148
      ],
      "type": "VEC3"
    },
    {
      "bufferView": 1,
      "byteOffset": 1572784,
      "componentType": 5126,
      "count": 65532,
      "max": [
        0.99957269430160522,
        0.94610583782196045
      ],
      "min": [
        0.00018310546875,
        0.00042714609298855066
      ],
      "type": "VEC2"
    },
    {
      "bufferView": 0,
      "byteOffset": 2278764,
      "componentType": 5125,
      "count": 187662,
      "max": [
        65531
      ],
      "min": [
        0
      ],
      "type": "SCALAR"
    },
    {
      "bufferView": 2,
      "byteOffset": 6291120,
      "componentType": 5126,
      "count": 65532,
      "max": [
        6.9862980842590332,
        13.507895469665527,
        25.35289192199707
      ],
      "min": [
        -9.163813591003418,
        -5.6649885177612305,
        16.60462760925293
      ],
      "type": "VEC3"
    },
    {
      "bufferView": 2,
      "byteOffset": 7077504,
      "componentType": 5126,
      "count": 65532,
      "max": [
        0.99999982118606567,
        0.99996829032897949,
        0.99999821186065674
      ],
      "min": [
        -0.9998440146446228,
        -0.9999469518661499,
        -0.99903082847595215
      ],
      "type": "VEC3"
    },
    {
      "bufferView": 1,
      "byteOffset": 2097040,
      "componentType": 5126,
      "count": 65532,
      "max": [
        0.99957275390625,
        0.93939197063446045
      ],
      "min": [
        0.00018310546875,
        0.00042714609298855066
      ],
      "type": "VEC2"
    },
    {
      "bufferView": 0,
      "byteOffset": 3029412,
      "componentType": 5125,
      "count": 276228,
      "max": [
        65531
      ],
      "min": [
        0
      ],
      "type": "SCALAR"
    },
    {
      "bufferView": 2,
      "byteOffset": 7863888,
      "componentType": 5126,
      "count": 65532,
      "max": [
        1.9363143444061279,
        12.783261299133301,
        26.748374938964844
      ],
      "min": [
        -8.474543571472168,
        1.1437218189239502,
        18.370176315307617
      ],
      "type": "VEC3"
    },
    {
      "bufferView": 2,
      "byteOffset": 8650272,
      "componentType": 5126,
      "count": 65532,
      "max": [
        0.99999278783798218,
        0.99996978044509888,
        0.99999392032623291
      ],
      "min": [
        -0.99999880790710449,
        -0.99998682737350464,
        -0.99970722198486328
      ],
      "type": "VEC3"
    },
    {
      "bufferView": 1,
      "byteOffset": 2621296,
      "componentType": 5126,
      "count": 65532,
      "max": [
        0.99957275390625,
        0.93817126750946045
      ],
      "min": [
        0.00018310546875,
        0.00042714609298855066
      ],
      "type": "VEC2"
    },
    {
      "bufferView": 0,
      "byteOffset": 4134324,
      "componentType": 5125,
      "count": 274929,
      "max": [
        65531
      ],
      "min": [
        0
      ],
      "type": "SCALAR"
    },
    {
      "bufferView": 2,
      "byteOffset": 9436656,
      "componentType": 5126,
      "count": 65532,
      "max": [
        3.8457322120666504,
        10.83326530456543,
        26.746503829956055
      ],
      "min": [
        -10.273372650146484,
        -6.3448128700256348,
        17.788364410400391
      ],
      "type": "VEC3"
    },
    {
      "bufferView": 2,
      "byteOffset": 10223040,
      "componentType": 5126,
      "count": 65532,
      "max": [
        0.99958109855651855,
        0.99999099969863892,
        0.99999904632568359
      ],
      "min": [
        -0.99993884563446045,
        -0.99979019165039062,
        -0.99837535619735718
      ],
      "type": "VEC3"
    },
    {
      "bufferView": 1,
      "byteOffset": 3145552,
      "componentType": 5126,
      "count": 65532,
      "max": [
        0.99957275390625,
        0.94061267375946045
      ],
      "min": [
        0.00018310546875,
        0.00042714609298855066
      ],
      "type": "VEC2"
    },
    {
      "bufferView": 0,
      "byteOffset": 5234040,
      "componentType": 5125,
      "count": 278769,
      "max": [
        65531
      ],
      "min": [
        0
      ],
      "type": "SCALAR"
    },
    {
      "bufferView": 2,
      "byteOffset": 11009424,
      "componentType": 5126,
      "count": 65532,
      "max": [
        7.9023756980895996,
        12.982048988342285,
        26.84752082824707
      ],
      "min": [
        -13.032651901245117,
        -10.309226036071777,
        17.022281646728516
      ],
      "type": "VEC3"
    },
    {
      "bufferView": 2,
      "byteOffset": 11795808,
      "componentType": 5126,
      "count": 65532,
      "max": [
        0.99999982118606567,
        0.99993371963500977,
        0.9999995231628418
      ],
      "min": [
        -0.99999845027923584,
        -0.9999958872795105,
        -0.99972248077392578
      ],
      "type": "VEC3"
    },
    {
      "bufferView": 1,
      "byteOffset": 3669808,
      "componentType": 5126,
      "count": 65532,
      "max": [
        0.99957275390625,
        0.94122302532196045
      ],
      "min": [
        0.00018310546875,
        0.00042714609298855066
      ],
      "type": "VEC2"
    },
    {
      "bufferView": 0,
      "byteOffset": 6349116,
      "componentType": 5125,
      "count": 228978,
      "max": [
        65531
      ],
      "min": [
        0
      ],
      "type": "SCALAR"
    },
    {
      "bufferView": 2,
      "byteOffset": 12582192,
      "componentType": 5126,
      "count": 65532,
      "max": [
        16.686342239379883,
        45.379215240478516,
        26.310039520263672
      ],
      "min": [
        -44.221359252929688,
        -47.095939636230469,
        -6.0294513702392578
      ],
      "type": "VEC3"
    },
    {
      "bufferView": 2,
      "byteOffset": 13368576,
      "componentType": 5126,
      "count": 65532,
      "max": [
        0.99999648332595825,
        0.99993789196014404,
        0.9999920129776001
      ],
      "min": [
        -0.99999028444290161,
        -0.99999743700027466,
        -0.99611759185791016
      ],
      "type": "VEC3"
    },
    {
      "bufferView": 1,
      "byteOffset": 4194064,
      "componentType": 5126,
      "count": 65532,
      "max": [
        0.99957269430160522,
        0.94183337688446045
      ],
      "min": [
        0.00018310546875,
        0.00042714609298855066
      ],
      "type": "VEC2"
    },
    {
      "bufferView": 0,
      "byteOffset": 7265028,
      "componentType": 5125,
      "count": 186060,
      "max": [
        65531
      ],
      "min": [
        0
      ],
      "type": "SCALAR"
    },
    {
      "bufferView": 2,
      "byteOffset": 14154960,
      "componentType": 5126,
      "count": 65532,
      "max": [
        35.958972930908203,
        45.379215240478516,
        19.248546600341797
      ],
      "min": [
        -34.779945373535156,
        -51.283885955810547,
        -6.0294513702392578
      ],
      "type": "VEC3"
    },
    {
      "bufferView": 2,
      "byteOffset": 14941344,
      "componentType": 5126,
      "count": 65532,
      "max": [
        0.99988526105880737,
        0.99997091293334961,
        0.99996483325958252
      ],
      "min": [
        -0.9998508095741272,
        -0.99962323904037476,
        -0.95603454113006592
      ],
      "type": "VEC3"
    },
    {
      "bufferView": 1,
      "byteOffset": 4718320,
      "componentType": 5126,
      "count": 65532,
      "max": [
        0.99957269430160522,
        0.93939197063446045
      ],
      "min": [
        0.00018310546875,
        0.00042714609298855066
      ],
      "type": "VEC2"
    },
    {
      "bufferView": 0,
      "byteOffset": 8009268,
      "componentType": 5125,
      "count": 173601,
      "max": [
        65531
      ],
      "min": [
        0
      ],
      "type": "SCALAR"
    },
    {
      "bufferView": 2,
      "byteOffset": 15727728,
      "componentType": 5126,
      "count": 11010,
      "max": [
        19.451499938964844,
        41.915115356445312,
        19.362689971923828
      ],
      "min": [
        -22.988080978393555,
        14.402036666870117,
        13.743101119995117
      ],
      "type": "VEC3"
    },
    {
      "bufferView": 2,
      "byteOffset": 15859848,
      "componentType": 5126,
      "count": 11010,
      "max": [
        0.99984657764434814,
        0.99927282333374023,
        0.99998670816421509
      ],
      "min": [
        -0.99970203638076782,
        -0.9995577335357666,
        -0.98149317502975464
      ],
      "type": "VEC3"
    },
    {
      "bufferView": 1,
      "byteOffset": 5242576,
      "componentType": 5126,
      "count": 11010,
      "max": [
        0.99957263469696045,
        0.94061267375946045
      ],
      "min": [
        0.00018310546875,
        0.00042714609298855066
      ],
      "type": "VEC2"
    },
    {
      "bufferView": 0,
      "byteOffset": 8703672,
      "componentType": 5125,
      "count": 21210,
      "max": [
        11009
      ],
      "min": [
        0
      ],
      "type": "SCALAR"
    }
  ],
  "asset": {
    "extras": {
      "author": "matousekfoto (https://sketchfab.com/matousekfoto)",
      "license": "CC-BY-4.0 (http://creativecommons.org/licenses/by/4.0/)",
      "source": "https://sketchfab.com/3d-models/castle-of-loarre-2876fc98a198429ca34ea7f0a2dae014",
      "title": "Castle of Loarre"
    },
    "generator": "Sketchfab-10.33.2",
    "version": "2.0"
  },
  "bufferViews": [
    {
      "buffer": 0,
      "byteLength": 8788512,
      "byteOffset": 0,
      "name": "floatBufferViews",
      "target": 34963
    },
    {
      "buffer": 0,
      "byteLength": 5330656,
      "byteOffset": 8788512,
      "byteStride": 8,
      "name": "floatBufferViews",
      "target": 34962
    },
    {
      "buffer": 0,
      "byteLength": 15991968,
      "byteOffset": 14119168,
      "byteStride": 12,
      "name": "floatBufferViews",
      "target": 34962
    }
  ],
  "buffers": [
    {
      "byteLength": 30111136,
      "uri": "scene.bin"
    }
  ],
  "extensionsUsed": [
    "KHR_materials_unlit"
  ],
  "images": [
    {
      "uri": "textures/Material_u1_v1_baseColor.jpeg"
    }
  ],
  "materials": [
    {
      "doubleSided": true,
      "extensions": {
        "KHR_materials_unlit": {}
      },
      "name": "Material_u1_v1",
      "pbrMetallicRoughness": {
        "baseColorFactor": [
          1,
          1,
          1,
          1
        ],
        "baseColorTexture": {
          "index": 0,
          "texCoord": 0
        },
        "metallicFactor": 0,
        "roughnessFactor": 1
      }
    }
  ],
  "meshes": [
    {
      "name": "meshNode_Material_u1_v1_0",
      "primitives": [
        {
          "attributes": {
            "NORMAL": 1,
            "POSITION": 0,
            "TEXCOORD_0": 2
          },
          "indices": 3,
          "material": 0,
          "mode": 4
        }
      ]
    },
    {
      "name": "meshNode_Material_u1_v1_0",
      "primitives": [
        {
          "attributes": {
            "NORMAL": 5,
            "POSITION": 4,
            "TEXCOORD_0": 6
          },
          "indices": 7,
          "material": 0,
          "mode": 4
        }
      ]
    },
    {
      "name": "meshNode_Material_u1_v1_0",
      "primitives": [
        {
          "attributes": {
            "NORMAL": 9,
            "POSITION": 8,
            "TEXCOORD_0": 10
          },
          "indices": 11,
          "material": 0,
          "mode": 4
        }
      ]
    },
    {
      "name": "meshNode_Material_u1_v1_0",
      "primitives": [
        {
          "attributes": {
            "NORMAL": 13,
            "POSITION": 12,
            "TEXCOORD_0": 14
          },
          "indices": 15,
          "material": 0,
          "mode": 4
        }
      ]
    },
    {
      "name": "meshNode_Material_u1_v1_0",
      "primitives": [
        {
          "attributes": {
            "NORMAL": 17,
            "POSITION": 16,
            "TEXCOORD_0": 18
          },
          "indices": 19,
          "material": 0,
          "mode": 4
        }
      ]
    },
    {
      "name": "meshNode_Material_u1_v1_0",
      "primitives": [
        {
          "attributes": {
            "NORMAL": 21,
            "POSITION": 20,
            "TEXCOORD_0": 22
          },
          "indices": 23,
          "material": 0,
          "mode": 4
        }
      ]
    },
    {
      "name": "meshNode_Material_u1_v1_0",
      "primitives": [
        {
          "attributes": {
            "NORMAL": 25,
            "POSITION": 24,
            "TEXCOORD_0": 26
          },
          "indices": 27,
          "material": 0,
          "mode": 4
        }
      ]
    },
    {
      "name": "meshNode_Material_u1_v1_0",
      "primitives": [
        {
          "attributes": {
            "NORMAL": 29,
            "POSITION": 28,
            "TEXCOORD_0": 30
          },
          "indices": 31,
          "material": 0,
          "mode": 4
        }
      ]
    },
    {
      "name": "meshNode_Material_u1_v1_0",
      "primitives": [
        {
          "attributes": {
            "NORMAL": 33,
            "POSITION": 32,
            "TEXCOORD_0": 34
          },
          "indices": 35,
          "material": 0,
          "mode": 4
        }
      ]
    },
    {
      "name": "meshNode_Material_u1_v1_0",
      "primitives": [
        {
          "attributes": {
            "NORMAL": 37,
            "POSITION": 36,
            "TEXCOORD_0": 38
          },
          "indices": 39,
          "material": 0,
          "mode": 4
        }
      ]
    },
    {
      "name": "meshNode_Material_u1_v1_0",
      "primitives": [
        {
          "attributes": {
            "NORMAL": 41,
            "POSITION": 40,
            "TEXCOORD_0": 42
          },
          "indices": 43,
          "material": 0,
          "mode": 4
        }
      ]
    }
  ],
  "nodes": [
    {
      "children": [
        1
      ],
      "name": "RootNode (gltf orientation matrix)",
      "rotation": [
        -0.70710678118654746,
        -0,
        -0,
        0.70710678118654757
      ]
    },
    {
      "children": [
        2
      ],
      "matrix": [
        0.022727273404598236,
        0,
        0,
        0,
        0,
        0.022727273404598236,
        0,
        0,
        0,
        0,
        0.022727273404598236,
        0,
        0,
        0,
        0,
        1
      ],
      "name": "RootNode (model correction matrix)"
    },
    {
      "children": [
        3
      ],
      "matrix": [
        1,
        0,
        0,
        0,
        0,
        0,
        1,
        0,
        0,
        -1,
        0,
        0,
        0,
        0,
        0,
        1
      ],
      "name": "Loarre.fbx"
    },
    {
      "children": [
        4
      ],
      "name": "RootNode"
    },
    {
      "children": [
        5,
        6,
        7,
        8,
        9,
        10,
        11,
        12,
        13,
        14,
        15
      ],
      "matrix": [
        7.5497899598708784e-06,
        1.1102230246251565e-14,
        99.999999999999716,
        0,
        99.999999999999616,
        -4.3711390063094768e-06,
        -7.5497899543197633e-06,
        0,
        4.3711390063094768e-06,
        99.999999999999915,
        -3.5527136788005009e-13,
        0,
        0,
        0,
        0,
        1
      ],
      "name": "meshNode"
    },
    {
      "mesh": 0,
      "name": "meshNode_Material_u1_v1_0"
    },
    {
      "mesh": 1,
      "name": "meshNode_Material_u1_v1_0"
    },
    {
      "mesh": 2,
      "name": "meshNode_Material_u1_v1_0"
    },
    {
      "mesh": 3,
      "name": "meshNode_Material_u1_v1_0"
    },
    {
      "mesh": 4,
      "name": "meshNode_Material_u1_v1_0"
    },
    {
      "mesh": 5,
      "name": "meshNode_Material_u1_v1_0"
    },
    {
      "mesh": 6,
      "name": "meshNode_Material_u1_v1_0"
    },
    {
      "mesh": 7,
      "name": "meshNode_Material_u1_v1_0"
    },
    {
      "mesh": 8,
      "name": "meshNode_Material_u1_v1_0"
    },
    {
      "mesh": 9,
      "name": "meshNode_Material_u1_v1_0"
    },
    {
      "mesh": 10,
      "name": "meshNode_Material_u1_v1_0"
    }
  ],
  "samplers": [
    {
      "magFilter": 9729,
      "minFilter": 9987,
      "wrapS": 10497,
      "wrapT": 10497
    }
  ],
  "scene": 0,
  "scenes": [
    {
      "name": "OSG_Scene",
      "nodes": [
        0
      ]
    }
  ],
  "textures": [
    {
      "sampler": 0,
      "source": 0
    }
  ]
}

